<?xml version="1.0" encoding="iso-8859-1"?>
<!-- Generator: Adobe Illustrator 19.0.0, SVG Export Plug-In . SVG Version: 6.00 Build 0)  -->
<svg version="1.1" id="Layer_1" xmlns="http://www.w3.org/2000/svg" xmlns:xlink="http://www.w3.org/1999/xlink" x="0px" y="0px"
	 viewBox="0 0 100 1200" style="enable-background:new 0 0 100 1200;" xml:space="preserve">
<g id="XMLID_11_">
	<rect id="XMLID_144_" style="fill:none;" width="100" height="100"/>
	<rect id="XMLID_143_" y="100" style="fill:none;" width="100" height="100"/>
	<rect id="XMLID_142_" y="200" style="fill:none;" width="100" height="100"/>
	<rect id="XMLID_141_" y="300" style="fill:none;" width="100" height="100"/>
	<rect id="XMLID_140_" y="400" style="fill:none;" width="100" height="100"/>
	<rect id="XMLID_139_" y="500" style="fill:none;" width="100" height="100"/>
	<rect id="XMLID_138_" y="600" style="fill:none;" width="100" height="100"/>
	<rect id="XMLID_137_" y="700" style="fill:none;" width="100" height="100"/>
	<rect id="XMLID_136_" y="800" style="fill:none;" width="100" height="100"/>
	<rect id="XMLID_135_" y="900" style="fill:none;" width="100" height="100"/>
	<rect id="XMLID_134_" y="1000" style="fill:none;" width="100" height="100"/>
	<rect id="XMLID_133_" y="1100" style="fill:none;" width="100" height="100"/>
	<path id="XMLID_130_" style="fill:none;stroke:#FFFFFF;stroke-width:3;stroke-miterlimit:10;" d="M50,11.12
		c-21.473,0-38.88,17.407-38.88,38.88S28.527,88.88,50,88.88c21.473,0,38.88-17.407,38.88-38.88S71.473,11.12,50,11.12z
		 M60.279,73.641c-3.308-0.25-24.875-5.43-33.959-31.085c-1.839-5.38,0.434-14.054,6.588-15.991
		c6.243-2.017,9.439,6.706,10.348,12.222l-5.446,5.441c0,0-0.154,3.401,7.299,10.853c7.445,7.449,10.851,7.297,10.851,7.297
		l6.328-6.323c3.999,0.844,12.014,5.936,12.014,5.936C73.304,69.511,68.206,74.479,60.279,73.641z"/>
	<g id="XMLID_124_">
		
			<path id="XMLID_129_" style="fill:none;stroke:#FFFFFF;stroke-width:3;stroke-linecap:round;stroke-linejoin:round;stroke-miterlimit:10;" d="
			M78.778,188.88H21.222c-1.805,0-3.268-1.463-3.268-3.268v-71.223c0-1.805,1.463-3.268,3.268-3.268h57.557
			c1.805,0,3.268,1.463,3.268,3.268v71.223C82.047,187.417,80.583,188.88,78.778,188.88z"/>
		<g id="XMLID_125_">
			
				<line id="XMLID_3_" style="fill:none;stroke:#FFFFFF;stroke-width:3;stroke-linecap:round;stroke-linejoin:round;stroke-miterlimit:10;" x1="28.75" y1="132.232" x2="67.75" y2="132.232"/>
			
				<line id="XMLID_2_" style="fill:none;stroke:#FFFFFF;stroke-width:3;stroke-linecap:round;stroke-linejoin:round;stroke-miterlimit:10;" x1="28.75" y1="151.232" x2="67.75" y2="151.232"/>
			
				<line id="XMLID_1_" style="fill:none;stroke:#FFFFFF;stroke-width:3;stroke-linecap:round;stroke-linejoin:round;stroke-miterlimit:10;" x1="28.75" y1="171.232" x2="67.75" y2="171.232"/>
		</g>
	</g>
	<g id="XMLID_121_">
		<g id="XMLID_122_">
			<path id="XMLID_123_" style="fill:#FFFFFF;" d="M79.968,848.349l-0.059-0.156c-0.604-1.163-1.776-2.22-3.386-3.06
				c-2.558-1.335-5.661-1.85-7.28-1.659l-12.773,1.516l-20.394-5.68c-0.179-0.049-0.361-0.064-0.546-0.042
				c-0.485,0.061-0.91,0.374-1.112,0.818c-0.287,0.639-0.07,1.379,0.511,1.755l7.356,4.833l-10.264,1.217
				c-1.713-2.21-3.329-4.33-4.805-6.298c-2.287-3.053-4.143-4.349-5.567-3.901c-1.483,0.466-1.717,2.463-1.635,3.152l2.359,13.256
				c0.058,0.486,0.233,0.839,0.539,1.075c0.51,0.39,1.173,0.308,1.869,0.213l2.51-0.309l12.852,0.372l-4.296,4.576
				c-0.475,0.508-0.51,1.275-0.083,1.826c0.121,0.157,0.28,0.289,0.458,0.381c0.253,0.132,0.535,0.183,0.819,0.152
				c0.185-0.021,0.353-0.077,0.517-0.169l10.52-5.855l5.781-2.327l21.586-2.561c0.331-0.038,0.647-0.067,0.967-0.096
				c0.732-0.064,1.423-0.125,1.993-0.307C79.627,850.688,80.14,849.818,79.968,848.349z"/>
		</g>
	</g>
	<g id="XMLID_118_">
		<g id="XMLID_119_">
			<path id="XMLID_120_" style="fill:#F6921E;" d="M79.968,948.349l-0.059-0.156c-0.604-1.163-1.776-2.22-3.386-3.06
				c-2.558-1.335-5.661-1.85-7.28-1.659l-12.773,1.516l-20.394-5.68c-0.179-0.049-0.361-0.064-0.546-0.042
				c-0.485,0.061-0.91,0.374-1.112,0.818c-0.287,0.639-0.07,1.379,0.511,1.755l7.356,4.833l-10.264,1.217
				c-1.713-2.21-3.329-4.33-4.805-6.298c-2.287-3.053-4.143-4.349-5.567-3.901c-1.483,0.466-1.717,2.463-1.635,3.152l2.359,13.256
				c0.058,0.486,0.233,0.839,0.539,1.075c0.51,0.39,1.173,0.308,1.869,0.213l2.51-0.309l12.852,0.372l-4.296,4.576
				c-0.475,0.508-0.51,1.275-0.083,1.826c0.121,0.157,0.28,0.289,0.458,0.381c0.253,0.132,0.535,0.183,0.819,0.152
				c0.185-0.021,0.353-0.077,0.517-0.169l10.52-5.855l5.781-2.327l21.586-2.561c0.331-0.038,0.647-0.067,0.967-0.096
				c0.732-0.064,1.423-0.125,1.993-0.307C79.627,950.688,80.14,949.818,79.968,948.349z"/>
		</g>
	</g>
	<path id="XMLID_108_" style="fill:#FFFFFF;" d="M24.677,656.568h35.166v4.865H34.761h-0.503c-0.763-2.095-2.774-3.597-5.131-3.597
		c-2.321,0-4.308,1.457-5.096,3.505c-0.972-0.281-1.683-1.174-1.683-2.236v-0.207C22.348,657.611,23.391,656.568,24.677,656.568z
		 M33.009,662.753c0,2.24-1.822,4.063-4.063,4.063c-2.239,0-4.063-1.822-4.063-4.063c0-2.24,1.823-4.063,4.063-4.063
		C31.187,658.689,33.009,660.512,33.009,662.753z M31.767,662.753c0-1.555-1.265-2.82-2.82-2.82s-2.82,1.266-2.82,2.82
		c0,1.555,1.265,2.82,2.82,2.82C30.502,665.573,31.767,664.308,31.767,662.753z M74.075,662.753c0,2.24-1.823,4.063-4.063,4.063
		s-4.063-1.822-4.063-4.063c0-2.24,1.822-4.063,4.063-4.063S74.075,660.512,74.075,662.753z M72.833,662.753
		c0-1.555-1.266-2.82-2.82-2.82s-2.82,1.266-2.82,2.82c0,1.555,1.265,2.82,2.82,2.82S72.833,664.308,72.833,662.753z M80,651.083
		v9.186c0,0.429-0.348,0.776-0.776,0.776h-4.059c-0.86-1.89-2.763-3.209-4.972-3.209c-2.209,0-4.113,1.319-4.973,3.209h-2.738
		c-0.429,0-0.776-0.348-0.776-0.776v-18.449c0-0.429,0.348-0.776,0.776-0.776h10.221c0.429,0,1.081,0.143,1.553,0.776L80,651.083z
		 M76.378,649.064l-3.493-5.797c-0.27-0.499-0.602-0.776-1.786-0.776h-6.34c-0.429,0-0.776,0.347-0.776,0.776v5.797
		c0,0.429,0.348,0.776,0.776,0.776h10.842C76.03,649.841,76.378,649.493,76.378,649.064z M79.404,657.887
		c0-0.4-0.324-0.724-0.724-0.724c-0.4,0-0.724,0.325-0.724,0.724v1.372c0,0.4,0.325,0.724,0.724,0.724
		c0.4,0,0.724-0.324,0.724-0.724V657.887z M20,655.178h39.842v-21.993H20V655.178z"/>
	<path id="XMLID_98_" style="fill:#F6921E;" d="M24.677,756.568h35.166v4.865H34.761h-0.503c-0.763-2.095-2.774-3.597-5.131-3.597
		c-2.321,0-4.308,1.457-5.096,3.505c-0.972-0.281-1.683-1.174-1.683-2.236v-0.207C22.348,757.611,23.391,756.568,24.677,756.568z
		 M33.009,762.753c0,2.24-1.822,4.063-4.063,4.063c-2.239,0-4.063-1.822-4.063-4.063c0-2.24,1.823-4.063,4.063-4.063
		C31.187,758.689,33.009,760.512,33.009,762.753z M31.767,762.753c0-1.555-1.265-2.82-2.82-2.82s-2.82,1.266-2.82,2.82
		c0,1.555,1.265,2.82,2.82,2.82C30.502,765.573,31.767,764.308,31.767,762.753z M74.075,762.753c0,2.24-1.823,4.063-4.063,4.063
		s-4.063-1.822-4.063-4.063c0-2.24,1.822-4.063,4.063-4.063S74.075,760.512,74.075,762.753z M72.833,762.753
		c0-1.555-1.266-2.82-2.82-2.82s-2.82,1.266-2.82,2.82c0,1.555,1.265,2.82,2.82,2.82S72.833,764.308,72.833,762.753z M80,751.083
		v9.186c0,0.429-0.348,0.776-0.776,0.776h-4.059c-0.86-1.89-2.763-3.209-4.972-3.209c-2.209,0-4.113,1.319-4.973,3.209h-2.738
		c-0.429,0-0.776-0.348-0.776-0.776v-18.449c0-0.429,0.348-0.776,0.776-0.776h10.221c0.429,0,1.081,0.143,1.553,0.776L80,751.083z
		 M76.378,749.064l-3.493-5.797c-0.27-0.499-0.602-0.776-1.786-0.776h-6.34c-0.429,0-0.776,0.347-0.776,0.776v5.797
		c0,0.429,0.348,0.776,0.776,0.776h10.842C76.03,749.841,76.378,749.493,76.378,749.064z M79.404,757.887
		c0-0.4-0.324-0.724-0.724-0.724c-0.4,0-0.724,0.325-0.724,0.724v1.372c0,0.4,0.325,0.724,0.724,0.724
		c0.4,0,0.724-0.324,0.724-0.724V757.887z M20,755.178h39.842v-21.993H20V755.178z"/>
	<g id="XMLID_89_">
		<path id="XMLID_90_" style="fill:#FFFFFF;" d="M23.933,430.348c-1.12-3.393,0.73-7.065,4.124-8.185
			c3.394-1.12,7.066,0.73,8.185,4.124l12.735,38.598c-1.187-0.313-2.449-0.371-3.709-0.14l-12.329-37.367
			c-0.519-1.573-2.22-2.43-3.792-1.911c-1.573,0.519-2.43,2.22-1.911,3.792c0.301,0.912-0.195,1.896-1.107,2.196
			C25.218,431.756,24.234,431.26,23.933,430.348z M74.109,460.627l-20.865,6.884c0.74,0.841,1.327,1.84,1.7,2.969
			c0.013,0.04,0.021,0.081,0.033,0.121l20.222-6.672c0.912-0.301,1.408-1.284,1.107-2.196
			C76.005,460.821,75.021,460.326,74.109,460.627z M53.292,471.026c1.182,3.583-0.764,7.446-4.347,8.628
			c-3.583,1.182-7.446-0.764-8.628-4.347c-1.182-3.583,0.764-7.446,4.347-8.628C48.247,465.496,52.11,467.443,53.292,471.026z
			 M50.048,472.096c-0.591-1.791-2.522-2.764-4.314-2.173c-1.791,0.591-2.765,2.523-2.174,4.314
			c0.591,1.791,2.523,2.765,4.314,2.174C49.666,475.819,50.639,473.888,50.048,472.096z M68.836,434.446l7.084,21.47
			c0.15,0.456-0.097,0.948-0.553,1.098L53.07,464.37c-0.456,0.15-0.948-0.097-1.098-0.553l-7.084-21.47
			c-0.15-0.456,0.097-0.948,0.553-1.098l22.296-7.356C68.194,433.742,68.685,433.989,68.836,434.446z M65.887,446.917l-7.592-4.177
			l-3.614,7.874l2.393,1.101l1.563-3.407l2.822,8.552l2.7-0.891l-2.821-8.551l3.282,1.807L65.887,446.917z M59.262,434.109
			l-4.529-13.727c-0.096-0.292-0.411-0.45-0.702-0.354l-3.883,1.281l-0.019,0.035l-0.033-0.018l-2.049,0.676l1.687,5.114
			l-2.311,0.763l-1.687-5.114l-2.05,0.676l-0.015,0.034l-0.036-0.017l-3.858,1.273c-0.292,0.096-0.45,0.411-0.354,0.702
			l4.529,13.727c0.096,0.292,0.411,0.45,0.702,0.354l14.255-4.703C59.2,434.715,59.358,434.4,59.262,434.109z"/>
	</g>
	<g id="XMLID_80_">
		<path id="XMLID_81_" style="fill:#F6921E;" d="M23.933,530.348c-1.12-3.393,0.73-7.065,4.124-8.185s7.066,0.731,8.185,4.124
			l12.735,38.598c-1.187-0.313-2.449-0.371-3.709-0.14l-12.329-37.367c-0.519-1.573-2.22-2.43-3.792-1.911
			c-1.573,0.519-2.43,2.22-1.911,3.792c0.301,0.912-0.195,1.896-1.107,2.196C25.218,531.756,24.234,531.26,23.933,530.348z
			 M74.109,560.627l-20.865,6.885c0.74,0.841,1.327,1.84,1.7,2.969c0.013,0.04,0.021,0.081,0.033,0.121l20.222-6.672
			c0.912-0.301,1.408-1.284,1.107-2.196C76.005,560.821,75.021,560.326,74.109,560.627z M53.292,571.026
			c1.182,3.583-0.764,7.446-4.347,8.628c-3.583,1.182-7.446-0.764-8.628-4.347c-1.182-3.583,0.764-7.446,4.347-8.628
			C48.247,565.496,52.11,567.443,53.292,571.026z M50.048,572.096c-0.591-1.791-2.522-2.765-4.314-2.173
			c-1.791,0.591-2.765,2.523-2.174,4.314c0.591,1.792,2.523,2.765,4.314,2.174C49.666,575.819,50.639,573.888,50.048,572.096z
			 M68.836,534.445l7.084,21.47c0.15,0.456-0.097,0.948-0.553,1.098L53.07,564.37c-0.456,0.15-0.948-0.097-1.098-0.553l-7.084-21.47
			c-0.15-0.456,0.097-0.948,0.553-1.098l22.296-7.356C68.194,533.742,68.685,533.989,68.836,534.445z M65.887,546.917l-7.592-4.177
			l-3.614,7.874l2.393,1.101l1.563-3.407l2.822,8.552l2.7-0.891l-2.821-8.551l3.282,1.807L65.887,546.917z M59.262,534.109
			l-4.529-13.727c-0.096-0.292-0.411-0.45-0.702-0.354l-3.883,1.281l-0.019,0.035l-0.033-0.018l-2.049,0.676l1.687,5.114
			l-2.311,0.763l-1.687-5.114l-2.05,0.676l-0.015,0.034l-0.036-0.017l-3.858,1.273c-0.292,0.096-0.45,0.411-0.354,0.702
			l4.529,13.727c0.096,0.292,0.411,0.45,0.702,0.354l14.255-4.703C59.2,534.715,59.358,534.4,59.262,534.109z"/>
	</g>
	<g id="XMLID_75_">
		
			<circle id="XMLID_79_" style="fill:none;stroke:#7F8C8D;stroke-width:4;stroke-linecap:round;stroke-linejoin:round;stroke-miterlimit:10;" cx="50" cy="350" r="30"/>
		<g id="XMLID_76_">
			
				<line id="XMLID_78_" style="fill:none;stroke:#7F8C8D;stroke-width:4;stroke-linecap:round;stroke-linejoin:round;stroke-miterlimit:10;" x1="64.466" y1="335.534" x2="35.153" y2="364.847"/>
			
				<line id="XMLID_77_" style="fill:none;stroke:#7F8C8D;stroke-width:4;stroke-linecap:round;stroke-linejoin:round;stroke-miterlimit:10;" x1="64.466" y1="364.847" x2="35.153" y2="335.534"/>
		</g>
	</g>
	<g id="XMLID_70_">
		<path id="XMLID_72_" style="fill:#95A5A6;" d="M75.893,1071.827c-1.137-3.74-10.327-8.802-14.599-10.668
			c-0.292-0.127-0.623-0.121-0.907,0.017l-10.361,5.008l-9.286-4.987c-0.279-0.15-0.61-0.17-0.908-0.055
			c-3.72,1.448-14.586,6.529-15.673,10.729c-0.776,3-1.085,4.47-1.099,4.531c-0.015,0.073-0.023,0.148-0.023,0.223
			c0,1.474,0.741,2.171,1.362,2.496c0.915,0.478,2.011,0.438,3.141,0.416c0.242-0.004,0.491-0.009,0.74-0.009h43.438
			c0.326,0,0.649,0.012,0.962,0.023c0.318,0.011,0.626,0.022,0.918,0.022c0.832,0,3.362,0,3.362-2.803
			C76.962,1075.632,76.857,1074.997,75.893,1071.827z M73.599,1077.402c-0.268,0-0.55-0.01-0.842-0.021
			c-0.338-0.012-0.687-0.024-1.039-0.024H28.281c-0.263,0-0.524-0.004-0.78,0.001c-0.232,0.004-0.46-0.001-0.681-0.001
			c-0.003,0-0.005,0-0.007,0c-0.299,0-1.069,0.007-1.406-0.169c-0.067-0.036-0.177-0.084-0.195-0.458
			c0.088-0.403,0.41-1.84,1.05-4.315c0.634-2.452,8.36-6.838,13.894-9.066l9.329,5.01c0.305,0.165,0.672,0.172,0.986,0.021
			l10.407-5.03c6.116,2.749,12.328,7.105,12.936,9.107c0.927,3.052,0.975,3.492,0.975,4.313
			C74.79,1077.269,74.79,1077.402,73.599,1077.402z"/>
		<path id="XMLID_71_" style="fill:#95A5A6;" d="M38.599,1048.381c0.586,1.464,1.254,2.513,1.957,3.617
			c0.198,0.312,0.4,0.629,0.603,0.961c0.705,1.156,1.419,2.022,2.215,2.679c-0.054,1.07-0.187,2.386-0.427,3.363
			c-0.143,0.582,0.213,1.171,0.795,1.314c0.581,0.143,1.171-0.213,1.314-0.795c0.324-1.32,0.477-3.125,0.511-4.374
			c0.01-0.366-0.165-0.713-0.467-0.922c-0.741-0.513-1.404-1.274-2.087-2.396c-0.21-0.345-0.419-0.672-0.625-0.995
			c-0.753-1.183-1.404-2.205-1.956-3.74c-0.144-0.4-0.561-0.682-0.984-0.718c-0.105-0.008-0.393-0.18-0.547-0.46
			c-1.097-2.012-1.566-5.086-1.361-5.713c0.028-0.018,0.15-0.059,0.414-0.056c0.309,0.024,0.591-0.107,0.802-0.321
			c0.212-0.213,0.325-0.504,0.314-0.804c-0.23-6.23,2.064-9.579,4.028-11.292c0.361-0.314,0.473-0.828,0.276-1.265
			c-0.013-0.029-0.028-0.058-0.043-0.085c0.925-0.623,2.482-0.582,2.502-0.578l0.06-1.084l0.895-0.615
			c-0.072-0.164,0.073-0.561,0.278-0.923c0.616,0.514,1.439,0.883,2.21,1.096c2.23,0.618,3.849,1.255,4.853,1.696
			c4.629,1.834,7.148,6.592,6.909,13.052c-0.011,0.291,0.096,0.575,0.296,0.786c0.2,0.212,0.477,0.334,0.768,0.34
			c0.2,0.004,0.302,0.044,0.296,0.024c0.233,0.662-0.237,3.741-1.333,5.752c-0.155,0.283-0.436,0.459-0.544,0.474
			c-0.397,0.055-0.731,0.324-0.87,0.699c-0.561,1.518-1.244,2.588-1.967,3.72c-0.219,0.343-0.442,0.691-0.665,1.058
			c-0.659,1.082-1.257,1.811-1.884,2.295c-0.268,0.207-0.424,0.528-0.422,0.867c0.007,0.988,0.088,2.901,0.553,4.605
			c0.132,0.482,0.569,0.8,1.047,0.8c0.095,0,0.191-0.013,0.287-0.039c0.578-0.159,0.919-0.756,0.761-1.334
			c-0.338-1.237-0.439-2.67-0.467-3.544c0.679-0.619,1.317-1.434,1.979-2.521c0.215-0.353,0.429-0.688,0.641-1.02
			c0.679-1.063,1.379-2.158,1.98-3.636c0.597-0.269,1.139-0.768,1.476-1.386c1.265-2.319,1.995-6.042,1.475-7.515
			c-0.209-0.593-0.636-1.028-1.222-1.266c-0.011-6.88-3.069-12.163-8.258-14.218c-1.031-0.454-2.755-1.134-5.111-1.786
			c-1.036-0.287-1.534-0.757-1.586-0.845c-0.048-0.291-0.211-0.55-0.453-0.717c-0.242-0.168-0.543-0.231-0.831-0.172
			c-0.949,0.189-1.778,1.46-2.104,2.267c-0.135,0.336-0.221,0.663-0.256,0.977c-1.438,0.202-3.45,0.894-4.008,2.922
			c-0.064,0.182-0.083,0.38-0.052,0.57c-1.882,2.105-3.677,5.533-3.685,10.944c-0.659,0.222-1.135,0.674-1.361,1.317
			c-0.522,1.47,0.207,5.19,1.473,7.51C37.357,1047.616,37.952,1048.132,38.599,1048.381z"/>
	</g>
	<g id="XMLID_19_">
		<path id="XMLID_22_" style="fill:#95A5A6;" d="M79.942,1169.363c-0.159-1.08-0.86-2.032-2.143-2.909l-13.228-9.051
			c-0.682-0.465-1.477-0.712-2.298-0.712c-1.277,0-2.474,0.603-3.207,1.619l-3.433,4.86c-0.27,0.377-0.332,0.841-0.351,1.288
			c-1.313,0.193-5.119,0.075-11.365-6.169c-6.04-6.031-8.9-10.466-8.529-13.206c0.067-0.033,0.115-0.098,0.175-0.144
			c0.315-0.088,0.604-0.194,0.838-0.377l4.741-3.591c1.692-1.276,2.024-3.759,0.736-5.54l-9.481-12.928
			c-1.824-2.484-3.969-2.744-6.271-0.766c-1.456,1.248-3.873,4.263-4.874,6.076c-0.549,0.972-0.777,1.974-0.68,2.983
			c-0.35,1.452-1.113,5.732,0.158,11.701c1.728,8.113,6.4,15.902,13.888,23.151c12.52,12.114,23.516,13.923,28.957,13.924h0.001
			c3.2,0,5.431-0.587,6.459-1.02c0.956,0.04,1.9-0.228,2.821-0.781c1.783-1.056,4.714-3.572,5.913-5.074
			C79.716,1171.527,80.099,1170.435,79.942,1169.363z M77.024,1171.3c-1.033,1.296-3.762,3.635-5.312,4.552
			c-0.21,0.126-0.418,0.217-0.623,0.294c-1.509-0.655-4.165-2.044-4.961-3.04c-0.385-0.482-1.09-0.56-1.571-0.175
			c-0.482,0.386-0.561,1.09-0.175,1.572c0.702,0.878,2.046,1.753,3.272,2.435c-0.981,0.213-2.343,0.4-4.08,0.4h-0.001
			c-5.103-0.001-15.448-1.728-27.402-13.295c-17.047-16.503-13.809-31.263-13.384-32.891c0.038-0.145,0.046-0.297,0.024-0.445
			c-0.087-0.592,0.039-1.178,0.391-1.8c0.874-1.584,3.124-4.395,4.379-5.47c0.577-0.497,1.09-0.759,1.483-0.759
			c0.169,0,0.683,0,1.528,1.151l9.476,12.922c0.575,0.796,0.452,1.89-0.277,2.44l-4.69,3.558c-0.019,0.009-0.051,0.02-0.083,0.03
			c-1.236-0.949-2.928-2.38-3.462-3.197c-0.336-0.518-1.031-0.662-1.547-0.327c-0.517,0.337-0.663,1.031-0.325,1.547
			c0.722,1.108,2.468,2.572,3.585,3.449c-0.89,3.642,1.939,8.504,9.066,15.622c5.68,5.678,9.819,6.869,12.292,6.869
			c1.085,0,1.897-0.241,2.294-0.467c0.299-0.17,0.504-0.468,0.554-0.809c0.022-0.152,0.03-0.371,0.033-0.613
			c0.002-0.134,0.005-0.365,0.02-0.492l3.356-4.749c0.51-0.709,1.649-0.887,2.423-0.36l13.226,9.05
			c0.73,0.499,1.131,0.966,1.193,1.389C77.79,1170.104,77.554,1170.644,77.024,1171.3z"/>
		<path id="XMLID_21_" style="fill:#95A5A6;" d="M48.724,1133.307c8.647,2.641,15.414,9.372,18.1,18.005
			c0.149,0.479,0.591,0.786,1.067,0.786c0.11,0,0.222-0.016,0.332-0.05c0.59-0.183,0.919-0.81,0.736-1.4
			c-2.906-9.341-10.227-16.623-19.582-19.479c-0.591-0.186-1.215,0.152-1.396,0.743
			C47.801,1132.502,48.134,1133.127,48.724,1133.307z"/>
		<path id="XMLID_20_" style="fill:#95A5A6;" d="M50.259,1125.022c12.966,3.065,22.878,13.514,25.253,26.619
			c0.098,0.539,0.568,0.918,1.099,0.918c0.066,0,0.133-0.005,0.2-0.017c0.608-0.11,1.011-0.692,0.901-1.3
			c-2.533-13.98-13.107-25.126-26.939-28.396c-0.6-0.136-1.203,0.23-1.345,0.831C49.286,1124.277,49.658,1124.879,50.259,1125.022z"
			/>
	</g>
	<g id="XMLID_14_">
		
			<circle id="XMLID_18_" style="fill:none;stroke:#FFFFFF;stroke-width:4;stroke-linecap:round;stroke-linejoin:round;stroke-miterlimit:10;" cx="50" cy="250" r="30"/>
		<g id="XMLID_15_">
			
				<line id="XMLID_17_" style="fill:none;stroke:#FFFFFF;stroke-width:4;stroke-linecap:round;stroke-linejoin:round;stroke-miterlimit:10;" x1="64.466" y1="235.534" x2="35.153" y2="264.847"/>
			
				<line id="XMLID_16_" style="fill:none;stroke:#FFFFFF;stroke-width:4;stroke-linecap:round;stroke-linejoin:round;stroke-miterlimit:10;" x1="64.466" y1="264.847" x2="35.153" y2="235.534"/>
		</g>
	</g>
</g>
</svg>
